<svg id="Layer_1" data-name="Layer 1" xmlns="http://www.w3.org/2000/svg" viewBox="0 0 590.71 223.68"><defs><style>.cls-1{fill:#fff;}</style></defs><title>dlogo</title><path class="cls-1" d="M151.73,157a3.05,3.05,0,1,0-6.11,0V306.35c-2.75,37.62-31.25,64.91-67.86,64.91-36.95,0-67-30.35-67-67.66,0-37.15,30.06-67.37,67-67.37,14.28,0,28.57,4.65,41.33,13.45a3.05,3.05,0,0,0,3.47-5c-13.78-9.5-29.27-14.53-44.79-14.53-40.31,0-73.11,33-73.11,73.48,0,40.68,32.8,73.77,73.11,73.77,30.91,0,56.5-17.8,67.86-44.83v41.22a3.05,3.05,0,1,0,6.11,0Z" transform="translate(-4.65 -153.91)"/><path class="cls-1" d="M592.3,377h-101c-7.56,0-13-3-15-8.22-1.92-5-.14-11.17,4.45-15.28,2.59-2.32,30.48-30.35,55.08-55.07,24-24.11,44.71-44.93,46.61-46.63,4.81-4.29,6.93-8.45,5.8-11.42-1-2.67-4.77-4.47-9.34-4.47h-100a3.05,3.05,0,0,1,0-6.11h100c7.3,0,13.07,3.22,15,8.4,1.22,3.21,1.89,9.84-7.44,18.16-1.76,1.57-24.43,24.35-46.35,46.37-25.87,26-52.62,52.87-55.34,55.31S481,364,482,366.64s4.37,4.29,9.33,4.29h101a3.05,3.05,0,0,1,0,6.11Z" transform="translate(-4.65 -153.91)"/><path class="cls-1" d="M403.34,377.59a73.65,73.65,0,1,1,44.11-132.71,2.7,2.7,0,1,1-3.22,4.34,68.27,68.27,0,1,0-40.89,123c37.69,0,68.35-30.38,68.35-67.73,0-17-6.15-31.41-11.9-39.21a2.7,2.7,0,1,1,4.35-3.21c8,10.83,13,27.09,13,42.42C477.09,344.79,444,377.59,403.34,377.59Z" transform="translate(-4.65 -153.91)"/><path class="cls-1" d="M301.9,263c-2.23-3.73-4.57-1.58-7.31,1.43-2.47,2.72-82.56,82.7-94.23,94.35a68.06,68.06,0,0,1,40-122.93c14.69,0,28.59,4.59,41.32,13.66a2.79,2.79,0,1,0,3.24-4.55c-13.69-9.75-28.68-14.69-44.56-14.69A73.47,73.47,0,0,0,167,303.68c0,40.72,32.88,73.85,73.29,73.85,39,0,67.53-28.11,73.24-62C318.06,288.54,304.07,266.61,301.9,263Z" transform="translate(-4.65 -153.91)"/></svg>