<svg id="Layer_1" data-name="Layer 1" xmlns="http://www.w3.org/2000/svg" viewBox="0 0 473.43 473.43"><defs><style>.cls-1{fill:#fff;stroke:#fff;stroke-miterlimit:10;stroke-width:0.75px;}</style></defs><title>insta-ic</title><path class="cls-1" d="M195,55H405a131.3,131.3,0,0,1,131.3,131.3V396.42A131.3,131.3,0,0,1,405,527.72H195a131.3,131.3,0,0,1-131.3-131.3V186.34A131.3,131.3,0,0,1,195,55Zm0,26.26a104.52,104.52,0,0,0-105,105V396.42a104.52,104.52,0,0,0,105,105H405a104.52,104.52,0,0,0,105-105V186.34a104.52,104.52,0,0,0-105-105ZM431.3,120.69A26.26,26.26,0,1,1,405,146.95,26.26,26.26,0,0,1,431.3,120.69ZM300,179.77A111.61,111.61,0,1,1,188.39,291.38,111.81,111.81,0,0,1,300,179.77ZM300,206a85.35,85.35,0,1,0,85.35,85.35A85.15,85.15,0,0,0,300,206Z" transform="translate(-63.28 -54.66)"/></svg>