<?xml version="1.0" encoding="utf-8"?>
<!-- Generator: Adobe Illustrator 21.1.0, SVG Export Plug-In . SVG Version: 6.00 Build 0)  -->
<svg version="1.1" id="Layer_1" xmlns="http://www.w3.org/2000/svg" xmlns:xlink="http://www.w3.org/1999/xlink" x="0px" y="0px"
	 viewBox="0 0 600 600" style="enable-background:new 0 0 600 600;" xml:space="preserve">
<style type="text/css">
	.st0{fill:#FFFFFF;}
</style>
<path class="st0" d="M44.8,79.7c12.7,15.8,25.3,31.6,66.4,63.3c22.5,17.3,68.2,40.2,110.7,52.2c37,10.4,41.1,9.5,74.3,12.7
	c-3.2-22.1-15.8-83.8,52.2-131.3c25.2-17.6,56.9-22.1,83.8-19c15.7,1.8,49,11.1,72.7,36.4c4.7,1.6,45.9-7.9,79.1-28.5
	c-4.7,15.8-19,49-53.8,66.4c1.6,3.2,41.1-3.2,68-17.4c-6.3,19-34.8,42.7-34.8,42.7l-23.7,20.6c0,0,2.5,47.9-12.7,106
	c-14.6,55.8-48.9,120.9-99.6,167.6c-80.6,74.3-176.2,94.8-234,91.7c-30-1.6-46.3-4-55.3-4.7c-45.9-3.2-121.8-36.4-134.4-50.6
	c4.7-1.6,49.7,4.5,96.5-7.9c41.8-11.1,79.3-37.5,83.8-42.7c-25.3-1.6-43.2-3.5-74.3-26.9c-19-14.2-38-45.9-39.5-58.5
	c11.1,1.6,39.5,3.2,53.8-1.6c-3.2-3.2-38.6-11.7-66.4-39.5c-19-19-31.6-50.6-30-83.8c28.5,17.4,53.8,15.8,53.8,15.8
	s-21.6-11.4-36.4-38C29,176.2,15.5,129.2,44.8,79.7z"/>
</svg>
